<svg width="58" height="58" viewBox="0 0 58 58" fill="none" xmlns="http://www.w3.org/2000/svg">
<g filter="url(#filter0_d_67_343)">
<rect x="4" width="50" height="50" rx="25" fill="#1C1B1F"/>
</g>
<mask id="mask0_67_343" style="mask-type:alpha" maskUnits="userSpaceOnUse" x="11" y="7" width="35" height="35">
<rect x="11" y="7" width="35" height="35" fill="#D9D9D9"/>
</mask>
<g mask="url(#mask0_67_343)">
<path d="M28.5 32.5208C30.3229 32.5208 31.8724 31.8828 33.1484 30.6068C34.4245 29.3307 35.0625 27.7813 35.0625 25.9583C35.0625 24.1354 34.4245 22.5859 33.1484 21.3099C31.8724 20.0339 30.3229 19.3958 28.5 19.3958C26.6771 19.3958 25.1276 20.0339 23.8516 21.3099C22.5755 22.5859 21.9375 24.1354 21.9375 25.9583C21.9375 27.7813 22.5755 29.3307 23.8516 30.6068C25.1276 31.8828 26.6771 32.5208 28.5 32.5208ZM28.5 29.6042C27.4792 29.6042 26.6163 29.2517 25.9115 28.5469C25.2066 27.842 24.8542 26.9792 24.8542 25.9583C24.8542 24.9375 25.2066 24.0747 25.9115 23.3698C26.6163 22.6649 27.4792 22.3125 28.5 22.3125C29.5208 22.3125 30.3837 22.6649 31.0885 23.3698C31.7934 24.0747 32.1458 24.9375 32.1458 25.9583C32.1458 26.9792 31.7934 27.842 31.0885 28.5469C30.3837 29.2517 29.5208 29.6042 28.5 29.6042ZM16.8333 37.625C16.0312 37.625 15.3446 37.3394 14.7734 36.7682C14.2023 36.197 13.9167 35.5104 13.9167 34.7083V17.2083C13.9167 16.4063 14.2023 15.7196 14.7734 15.1484C15.3446 14.5773 16.0312 14.2917 16.8333 14.2917H21.4271L24.125 11.375H32.875L35.5729 14.2917H40.1667C40.9687 14.2917 41.6554 14.5773 42.2266 15.1484C42.7977 15.7196 43.0833 16.4063 43.0833 17.2083V34.7083C43.0833 35.5104 42.7977 36.197 42.2266 36.7682C41.6554 37.3394 40.9687 37.625 40.1667 37.625H16.8333ZM40.1667 34.7083V17.2083H34.2604L31.599 14.2917H25.401L22.7396 17.2083H16.8333V34.7083H40.1667Z" fill="white"/>
</g>
<defs>
<filter id="filter0_d_67_343" x="0" y="0" width="58" height="58" filterUnits="userSpaceOnUse" color-interpolation-filters="sRGB">
<feFlood flood-opacity="0" result="BackgroundImageFix"/>
<feColorMatrix in="SourceAlpha" type="matrix" values="0 0 0 0 0 0 0 0 0 0 0 0 0 0 0 0 0 0 127 0" result="hardAlpha"/>
<feOffset dy="4"/>
<feGaussianBlur stdDeviation="2"/>
<feComposite in2="hardAlpha" operator="out"/>
<feColorMatrix type="matrix" values="0 0 0 0 0 0 0 0 0 0 0 0 0 0 0 0 0 0 0.25 0"/>
<feBlend mode="normal" in2="BackgroundImageFix" result="effect1_dropShadow_67_343"/>
<feBlend mode="normal" in="SourceGraphic" in2="effect1_dropShadow_67_343" result="shape"/>
</filter>
</defs>
</svg>
